<?xml version="1.0" encoding="utf-8"?>
<!-- Generator: Adobe Illustrator 16.0.0, SVG Export Plug-In . SVG Version: 6.00 Build 0)  -->
<!DOCTYPE svg PUBLIC "-//W3C//DTD SVG 1.1//EN" "http://www.w3.org/Graphics/SVG/1.1/DTD/svg11.dtd">
<svg version="1.1" id="Layer_1" xmlns:sketch="http://www.bohemiancoding.com/sketch/ns"
	 xmlns="http://www.w3.org/2000/svg" xmlns:xlink="http://www.w3.org/1999/xlink" x="0px" y="0px" width="512px" height="512px"
	 viewBox="0 0 512 512" enable-background="new 0 0 512 512" xml:space="preserve">
<title>libro</title>
<desc>Created with Sketch.</desc>
<g id="Page-1" sketch:type="MSPage">
	<g id="libro" sketch:type="MSArtboardGroup">
		<path id="Imported-Layers" sketch:type="MSShapeGroup" fill="#1A1918" d="M431.45,94.726H328.771
			c-8.404,0-16.775,2.079-24.2,6.008l-49.102,25.968l-49.115-25.976c-7.432-3.922-15.795-6.001-24.193-6.001H79.482
			c-17.997,0-32.638,14.642-32.638,32.638v217.24c0,17.996,14.642,32.637,32.638,32.637h102.679c4.023,0,8.026,0.993,11.577,2.876
			l50.938,26.94c3.308,1.755,7.047,2.68,10.793,2.68c3.747,0,7.48-0.925,10.773-2.68l50.953-26.94
			c3.557-1.883,7.553-2.876,11.576-2.876H431.45c17.997,0,32.638-14.641,32.638-32.637v-217.24
			C464.088,109.367,449.447,94.726,431.45,94.726L431.45,94.726z M182.161,350.239H79.482c-3.105,0-5.637-2.53-5.637-5.636v-217.24
			c0-3.105,2.532-5.636,5.637-5.636h102.679c4.017,0,8.026,0.999,11.577,2.875l48.231,25.51v224.962l-35.602-18.827
			C198.942,352.318,190.565,350.239,182.161,350.239L182.161,350.239z M437.087,344.604c0,3.105-2.53,5.636-5.637,5.636H328.771
			c-8.404,0-16.775,2.079-24.2,6.008l-35.601,18.827V150.105l48.225-25.503c3.557-1.876,7.553-2.875,11.576-2.875H431.45
			c3.106,0,5.637,2.531,5.637,5.636V344.604L437.087,344.604z"/>
	</g>
</g>
</svg>
