<?xml version="1.0" encoding="UTF-8" standalone="no"?>
<svg width="512px" height="512px" viewBox="0 0 512 512" version="1.1" xmlns="http://www.w3.org/2000/svg" xmlns:xlink="http://www.w3.org/1999/xlink" xmlns:sketch="http://www.bohemiancoding.com/sketch/ns">
    <!-- Generator: Sketch 3.3 (11970) - http://www.bohemiancoding.com/sketch -->
    <title>carrello</title>
    <desc>Created with Sketch.</desc>
    <defs></defs>
    <g id="Page-1" stroke="none" stroke-width="1" fill="none" fill-rule="evenodd" sketch:type="MSPage">
        <g id="carrello" sketch:type="MSArtboardGroup" fill="#1A1918">
            <g id="Imported-Layers" sketch:type="MSLayerGroup" transform="translate(44.117405, 46.942506)">
                <path d="M234.003138,206.170241 C238.828411,206.170241 243.354224,204.288723 246.761296,200.881651 L299.907101,147.735846 L283.928328,131.757073 L245.303544,170.376208 L245.303544,4.93262682 L222.702733,4.93262682 L222.702733,170.381858 L184.072299,131.757073 L168.093526,147.735846 L221.239331,200.881651 C224.652053,204.288723 229.177865,206.170241 234.003138,206.170241" id="Fill-1" sketch:type="MSShapeGroup"></path>
                <path d="M123.276119,286.747779 L344.402446,286.747779 C356.78769,286.747779 367.641729,278.39113 370.811493,266.41835 L418.504852,86.2333913 L396.655519,80.4475839 L348.962159,260.638193 C348.41409,262.706167 346.538223,264.146969 344.402446,264.146969 L123.276119,264.146969 C121.140343,264.146969 119.264475,262.706167 118.722056,260.638193 L77.3343223,104.285788 C72.305642,85.3011078 55.0781744,72.0400825 35.4380704,72.0400825 L2.18097818,72.0400825 L2.18097818,94.6408927 L35.4380704,94.6408927 C44.8343572,94.6408927 53.0780027,100.98607 55.4793388,110.065946 L96.8727227,266.41835 C100.036836,278.39113 110.896525,286.747779 123.276119,286.747779" id="Fill-2" sketch:type="MSShapeGroup"></path>
                <path d="M145.165004,317.665688 C118.597751,317.665688 96.9800765,339.277712 96.9800765,365.850615 C96.9800765,392.423517 118.597751,414.035542 145.165004,414.035542 C171.737906,414.035542 193.355581,392.423517 193.355581,365.850615 C193.355581,339.277712 171.737906,317.665688 145.165004,317.665688 L145.165004,317.665688 Z M145.165004,391.434732 C131.056448,391.434732 119.580887,379.959171 119.580887,365.850615 C119.580887,351.742059 131.056448,340.266498 145.165004,340.266498 C159.27921,340.266498 170.754771,351.742059 170.754771,365.850615 C170.754771,379.959171 159.27921,391.434732 145.165004,391.434732 L145.165004,391.434732 Z" id="Fill-3" sketch:type="MSShapeGroup"></path>
                <path d="M322.841273,317.665688 C296.274021,317.665688 274.650696,339.277712 274.650696,365.850615 C274.650696,392.423517 296.274021,414.035542 322.841273,414.035542 C349.408525,414.035542 371.0262,392.423517 371.0262,365.850615 C371.0262,339.277712 349.408525,317.665688 322.841273,317.665688 L322.841273,317.665688 Z M322.841273,391.434732 C308.732717,391.434732 297.251506,379.959171 297.251506,365.850615 C297.251506,351.742059 308.732717,340.266498 322.841273,340.266498 C336.949829,340.266498 348.42539,351.742059 348.42539,365.850615 C348.42539,379.959171 336.949829,391.434732 322.841273,391.434732 L322.841273,391.434732 Z" id="Fill-4" sketch:type="MSShapeGroup"></path>
            </g>
        </g>
    </g>
</svg>