<?xml version="1.0" encoding="utf-8"?>
<!-- Generated by IcoMoon.io -->
<!DOCTYPE svg PUBLIC "-//W3C//DTD SVG 1.1//EN" "http://www.w3.org/Graphics/SVG/1.1/DTD/svg11.dtd">
<svg version="1.1" xmlns="http://www.w3.org/2000/svg" xmlns:xlink="http://www.w3.org/1999/xlink" width="448" height="448" viewBox="0 0 448 448"><g id="icomoon-ignore">
</g>
<path d="M224 344v-48q0-3.5-2.25-5.75t-5.75-2.25h-48q-3.5 0-5.75 2.25t-2.25 5.75v48q0 3.5 2.25 5.75t5.75 2.25h48q3.5 0 5.75-2.25t2.25-5.75zM288 176q0-22-13.875-40.75t-34.625-29-42.5-10.25q-60.75 0-92.75 53.25-3.75 6 2 10.5l33 25q1.75 1.5 4.75 1.5 4 0 6.25-3 13.25-17 21.5-23 8.5-6 21.5-6 12 0 21.375 6.5t9.375 14.75q0 9.5-5 15.25t-17 11.25q-15.75 7-28.875 21.625t-13.125 31.375v9q0 3.5 2.25 5.75t5.75 2.25h48q3.5 0 5.75-2.25t2.25-5.75q0-4.75 5.375-12.375t13.625-12.375q8-4.5 12.25-7.125t11.5-8.75 11.125-12 7-15.125 3.125-20.25zM384 224q0 52.25-25.75 96.375t-69.875 69.875-96.375 25.75-96.375-25.75-69.875-69.875-25.75-96.375 25.75-96.375 69.875-69.875 96.375-25.75 96.375 25.75 69.875 69.875 25.75 96.375z"></path>
</svg>
