<?xml version="1.0" encoding="utf-8"?>
<!-- Generator: Adobe Illustrator 16.0.0, SVG Export Plug-In . SVG Version: 6.00 Build 0)  -->
<!DOCTYPE svg PUBLIC "-//W3C//DTD SVG 1.1//EN" "http://www.w3.org/Graphics/SVG/1.1/DTD/svg11.dtd">
<svg version="1.1" id="Layer_1" xmlns="http://www.w3.org/2000/svg" xmlns:xlink="http://www.w3.org/1999/xlink" x="0px" y="0px"
	 width="512px" height="512px" viewBox="0 0 512 512" enable-background="new 0 0 512 512" xml:space="preserve">
<path fill="#010101" d="M475.197,120.909c-16.074,7.303-33.389,12.101-51.316,14.392c18.355-11.051,32.554-28.581,39.215-49.645
	c-17.315,10.43-36.505,17.733-56.733,21.899c-16.48-17.937-39.643-28.367-65.922-28.367c-49.013,0-89.073,40.05-89.073,89.491
	c0,7.089,0.835,13.975,2.292,20.443c-74.264-3.759-140.389-39.429-184.401-93.454c-7.721,13.14-12.101,28.581-12.101,44.848
	c0,31.086,15.645,58.618,39.846,74.263c-14.81,0-28.581-4.176-40.682-10.43c0,0,0,0,0,0.631c0,43.381,30.873,79.671,71.758,87.821
	c-7.507,2.077-15.431,3.137-23.569,3.137c-5.633,0-11.266-0.651-16.684-1.671c11.265,35.243,44.012,61.521,83.44,62.153
	c-30.455,24.201-69.048,38.38-111.186,38.38c-7.089,0-14.189-0.428-21.278-1.242c39.632,25.443,86.781,40.253,137.262,40.253
	c164.375,0,254.703-136.427,254.703-254.702c0-3.962,0-7.721-0.205-11.683C448.082,154.908,463.096,139.06,475.197,120.909z"/>
</svg>
